<?xml version="1.0" standalone="no"?>
<!DOCTYPE svg PUBLIC "-//W3C//DTD SVG 20010904//EN"
 "http://www.w3.org/TR/2001/REC-SVG-20010904/DTD/svg10.dtd">
<svg version="1.0" xmlns="http://www.w3.org/2000/svg"
 width="500.000000pt" height="500.000000pt" viewBox="0 0 500.000000 500.000000"
 preserveAspectRatio="xMidYMid meet">
<metadata>
Created by potrace 1.14, written by Peter Selinger 2001-2017
</metadata>
<g transform="translate(0.000000,500.000000) scale(0.100000,-0.100000)"
fill="#000000" stroke="none">
<path d="M1896 3059 c-62 -74 -144 -247 -224 -479 -63 -183 -83 -230 -94 -230
-7 0 -8 56 -3 183 6 164 5 186 -10 200 -49 50 -126 -101 -204 -398 -47 -178
-83 -295 -91 -295 -14 0 -21 46 -27 182 -9 219 24 526 81 748 13 52 21 98 17
103 -28 29 -75 -126 -113 -366 -18 -114 -22 -187 -22 -372 -1 -235 6 -296 40
-330 39 -38 63 15 138 300 53 204 68 251 108 333 30 61 44 79 54 69 2 -2 -1
-68 -7 -147 -12 -153 -7 -221 18 -245 14 -14 17 -14 35 2 30 27 50 72 108 243
83 243 173 434 229 484 42 38 40 -6 -14 -359 -44 -288 -52 -364 -65 -585 -6
-102 -12 -207 -15 -235 -4 -46 6 -75 26 -75 5 0 9 30 9 68 0 123 38 471 85
772 38 244 47 323 42 378 -8 102 -42 119 -101 51z"/>
<path d="M3222 3068 c-5 -7 -15 -32 -21 -54 -10 -37 -15 -43 -49 -49 -55 -10
-221 -65 -264 -86 -21 -11 -38 -26 -38 -35 0 -22 29 -29 43 -11 16 22 95 54
201 82 l89 24 -6 -77 c-11 -133 -20 -578 -13 -626 5 -34 12 -46 25 -46 16 0
17 20 18 254 1 140 6 311 13 380 14 143 -6 124 158 152 51 8 107 12 123 9 34
-8 39 9 7 26 -20 11 -105 4 -238 -18 -31 -5 -34 -4 -22 10 15 18 12 69 -4 74
-6 2 -16 -2 -22 -9z"/>
<path d="M3332 2818 c-28 -28 3 -83 33 -58 8 7 15 20 15 29 0 17 -18 41 -30
41 -3 0 -11 -5 -18 -12z"/>
<path d="M2258 2763 c-8 -10 -41 -62 -72 -115 -65 -110 -135 -195 -136 -164 0
10 7 45 16 78 18 71 8 93 -24 53 -24 -30 -46 -125 -37 -155 3 -11 15 -25 25
-30 30 -16 72 29 157 166 42 68 78 122 81 119 5 -5 -17 -273 -24 -295 -3 -8
-36 -40 -75 -70 -77 -61 -159 -154 -203 -232 -59 -102 -31 -198 56 -198 115 0
197 124 248 377 l23 112 98 60 97 60 -9 -32 c-14 -50 -11 -114 7 -131 71 -72
163 114 104 211 -11 19 -15 35 -10 38 6 4 10 13 10 21 0 30 -44 10 -66 -29
-16 -29 -44 -52 -122 -97 l-102 -59 1 155 c0 178 -6 200 -43 157z m312 -248
c0 -41 -28 -115 -42 -115 -7 0 -9 20 -5 53 9 92 47 141 47 62z m-341 -202
c-29 -154 -73 -265 -126 -322 -32 -33 -47 -41 -75 -41 -44 0 -63 21 -62 70 2
61 51 137 157 243 54 53 101 97 106 97 5 0 4 -21 0 -47z"/>
<path d="M3038 2633 c-9 -10 -21 -28 -27 -41 -7 -13 -22 -27 -34 -31 -12 -5
-56 -33 -99 -64 l-76 -55 -46 47 c-52 53 -56 71 -21 99 25 20 34 52 14 52 -18
0 -53 -21 -71 -44 -32 -39 -23 -75 34 -133 l52 -53 -32 -37 c-86 -101 -114
-169 -86 -210 32 -50 102 -18 149 69 24 43 30 65 30 118 0 73 -3 69 99 142 44
31 58 37 52 22 -4 -10 -10 -40 -13 -66 -7 -57 15 -98 51 -98 64 0 110 144 71
220 -9 18 -13 40 -9 55 7 30 -15 35 -38 8z m22 -118 c0 -49 -23 -115 -39 -115
-16 0 -13 60 5 113 20 59 34 60 34 2z m-301 -255 c-22 -51 -63 -95 -80 -84
-26 16 2 88 59 155 l37 43 3 -31 c2 -17 -7 -55 -19 -83z"/>
<path d="M3289 2623 c-6 -15 -13 -55 -16 -88 -4 -49 -1 -71 15 -108 36 -82 95
-77 182 14 l57 60 49 -44 48 -44 -47 -54 c-52 -59 -87 -123 -87 -158 0 -66 56
-82 113 -31 47 41 79 118 76 184 -1 29 1 58 5 64 4 7 43 38 87 68 43 31 79 60
79 65 0 20 -31 6 -109 -50 l-83 -59 -51 49 c-47 45 -50 50 -39 75 7 14 21 28
32 31 24 6 27 31 5 39 -24 10 -65 -24 -84 -69 -23 -52 -93 -132 -133 -153 -28
-14 -32 -14 -47 1 -13 13 -16 36 -14 125 2 92 0 110 -13 110 -8 0 -19 -12 -25
-27z m326 -359 c-18 -49 -72 -101 -87 -86 -18 18 3 71 50 134 l47 63 3 -34 c2
-19 -4 -54 -13 -77z"/>
</g>
</svg>
